<svg width="20" height="21" viewBox="0 0 20 21" fill="black" xmlns="http://www.w3.org/2000/svg">
<g clip-path="url(#clip0_2668_2209)">
<path d="M10 0.747498C4.475 0.747498 0 5.225 0 10.7475C0 15.1667 2.865 18.9142 6.8375 20.235C7.3375 20.3292 7.52083 20.02 7.52083 19.7542C7.52083 19.5167 7.5125 18.8875 7.50833 18.0542C4.72667 18.6575 4.14 16.7125 4.14 16.7125C3.685 15.5583 3.0275 15.25 3.0275 15.25C2.12167 14.63 3.0975 14.6425 3.0975 14.6425C4.10167 14.7125 4.62917 15.6725 4.62917 15.6725C5.52083 17.2017 6.97 16.76 7.54167 16.5042C7.63167 15.8575 7.88917 15.4167 8.175 15.1667C5.95417 14.9167 3.62 14.0567 3.62 10.225C3.62 9.13333 4.0075 8.24166 4.64917 7.54166C4.53667 7.28916 4.19917 6.2725 4.73667 4.895C4.73667 4.895 5.57417 4.62666 7.48667 5.92C8.28667 5.6975 9.13667 5.5875 9.98667 5.5825C10.8367 5.5875 11.6867 5.6975 12.4867 5.92C14.3867 4.62666 15.2242 4.895 15.2242 4.895C15.7617 6.2725 15.4242 7.28916 15.3242 7.54166C15.9617 8.24166 16.3492 9.13333 16.3492 10.225C16.3492 14.0667 14.0117 14.9125 11.7867 15.1583C12.1367 15.4583 12.4617 16.0717 12.4617 17.0083C12.4617 18.3467 12.4492 19.4217 12.4492 19.7467C12.4492 20.0092 12.6242 20.3217 13.1367 20.2217C17.1375 18.91 20 15.16 20 10.7475C20 5.225 15.5225 0.747498 10 0.747498Z"/>
</g>
<defs>
<clipPath id="clip0_2668_2209">
<rect width="20" height="20" transform="translate(0 0.5)"/>
</clipPath>
</defs>
</svg>
