<svg width="20" height="21" viewBox="0 0 20 21" fill="black" xmlns="http://www.w3.org/2000/svg">
<g clip-path="url(#clip0_2699_2185)">
<path d="M17.0392 17.96H14.0775V13.3192C14.0775 12.2125 14.055 10.7884 12.5342 10.7884C10.99 10.7884 10.7542 11.9925 10.7542 13.2375V17.96H7.7925V8.41669H10.6375V9.71752H10.6758C11.0733 8.96752 12.04 8.17585 13.4842 8.17585C16.485 8.17585 17.04 10.1509 17.04 12.7217V17.96H17.0392ZM4.4475 7.11085C3.49417 7.11085 2.72833 6.33919 2.72833 5.39002C2.72833 4.44169 3.495 3.67085 4.4475 3.67085C5.3975 3.67085 6.1675 4.44169 6.1675 5.39002C6.1675 6.33919 5.39667 7.11085 4.4475 7.11085ZM5.9325 17.96H2.9625V8.41669H5.9325V17.96ZM18.5208 0.916687H1.47583C0.66 0.916687 0 1.56169 0 2.35752V19.4759C0 20.2725 0.66 20.9167 1.47583 20.9167H18.5183C19.3333 20.9167 20 20.2725 20 19.4759V2.35752C20 1.56169 19.3333 0.916687 18.5183 0.916687H18.5208Z"/>
</g>
<defs>
<clipPath id="clip0_2699_2185">
<rect width="20" height="20" transform="translate(0 0.5)"/>
</clipPath>
</defs>
</svg>
