<svg width="20" height="21" viewBox="0 0 20 21" fill="black" xmlns="http://www.w3.org/2000/svg">
<path d="M19.9608 4.30832C19.2121 4.638 18.4188 4.85561 17.6067 4.95416C18.4618 4.4402 19.102 3.6342 19.4092 2.68499C18.6167 3.14749 17.7383 3.48416 16.8033 3.67166C16.1865 3.01202 15.3691 2.57451 14.478 2.42708C13.587 2.27964 12.6722 2.43053 11.8758 2.85632C11.0793 3.2821 10.4457 3.95895 10.0734 4.78176C9.70104 5.60457 9.6108 6.5273 9.81667 7.40666C6.40833 7.24582 3.38917 5.60832 1.36667 3.13499C0.998995 3.75984 0.80722 4.47251 0.811667 5.19749C0.811667 6.62249 1.53667 7.87499 2.635 8.61082C1.98405 8.5901 1.34748 8.4141 0.778333 8.09749V8.14749C0.777964 9.09448 1.10522 10.0124 1.70459 10.7456C2.30395 11.4788 3.13851 11.9821 4.06667 12.17C3.46525 12.3311 2.83534 12.3553 2.22333 12.2408C2.48677 13.0558 2.99805 13.7683 3.68585 14.2787C4.37364 14.7892 5.20363 15.0722 6.06 15.0883C4.60961 16.2266 2.81873 16.8444 0.975 16.8425C0.65 16.8425 0.325833 16.8233 0 16.7867C1.87976 17.9903 4.06543 18.6292 6.2975 18.6275C13.8417 18.6275 17.9625 12.3808 17.9625 6.97332C17.9625 6.79832 17.9625 6.62332 17.95 6.44832C18.755 5.86904 19.4494 5.14984 20 4.32499L19.9608 4.30832Z"/>
</svg>
